<svg id="Layer_1" data-name="Layer 1" xmlns="http://www.w3.org/2000/svg" viewBox="0 0 500 500"><defs><style>.cls-1{fill:#eff6f9;}.cls-2{fill:#f9d4c5;}.cls-3{fill:#edbfae;}.cls-4{fill:#2d456b;}.cls-5{fill:#78aea4;}.cls-6{fill:#e6e7e8;}.cls-7{fill:#ffca6c;}.cls-8{fill:#ee38ab;}.cls-9{fill:#f7bda9;}.cls-10{fill:#272223;}.cls-11{fill:#dc9b80;}</style></defs><title>Tawk_Avatar-Female</title><path class="cls-1" d="M252,482A177,177,0,1,1,429,305,177,177,0,0,1,252,482"/><path class="cls-2" d="M296.88,359.86v-32l-44.86,32-44.86-32v32c0,13.86-14.11,13.86-14.11,13.86l59,58.72,59-58.72S296.88,373.72,296.88,359.86Z"/><path class="cls-3" d="M296.88,327.85l-44.86,32-44.86-32v32c0,.45,0,.84-.08,1.26,24.59,11,44.94,12,44.94,12s20.35-.94,44.94-12c0-.42-.08-.81-.08-1.26Z"/><path class="cls-4" d="M252,482a176.7,176.7,0,0,0,142.66-72.25l-76.63-33.26h-7.14L291.86,398a53.21,53.21,0,0,1-79.68,0l-19.05-21.53H186L108.74,408.9A176.74,176.74,0,0,0,252,482"/><path class="cls-5" d="M252,401.75h0l-25.55,4.5,10.59,24.6a11,11,0,0,0,10.07,6.62h9.78A11,11,0,0,0,267,430.85l10.6-24.6Z"/><path class="cls-6" d="M252,401.75l-63.66,20.72v-57s2-6.47,18.8-5.61v20.28S213.18,396.53,252,401.75Z"/><path class="cls-6" d="M252,401.75l63.66,20.72v-57s-2-6.47-18.8-5.61v20.28S290.86,396.53,252,401.75Z"/><path class="cls-7" d="M129,369.83l121.6-172.21V96.69A78.69,78.69,0,0,0,172,18h0a78.69,78.69,0,0,0-78.7,78.69V305C93.25,324.81,109.27,369.83,129,369.83Z"/><path class="cls-8" d="M223.89,37.6a78.81,78.81,0,0,0-20.13-12.89c-51.85,17.64-46.59,49.71-46.59,49.71A131.76,131.76,0,0,1,223.89,37.6Z"/><path class="cls-7" d="M124,325.27h0a52.94,52.94,0,0,1,52.94,52.94v5.06a0,0,0,0,1,0,0H71a0,0,0,0,1,0,0v-5.06A52.94,52.94,0,0,1,124,325.27Z" transform="translate(247.92 708.55) rotate(-180)"/><path class="cls-7" d="M380.32,248.62H122.63l-3-76.74A132,132,0,0,1,251.47,34.69h0A132,132,0,0,1,383.35,171.88Z"/><ellipse class="cls-9" cx="138.06" cy="251.73" rx="30.72" ry="35.62"/><ellipse class="cls-9" cx="364.88" cy="251.73" rx="30.72" ry="35.62"/><path class="cls-2" d="M174.74,115c-20.26,0-36.68,17.17-36.68,38.34V272.88c0,58.31,64,91.15,111.64,95.08,36.72,3,115.18-42.78,115.18-95.08V153.32c0-21.17-16.42-38.34-36.68-38.34Z"/><path class="cls-3" d="M273.78,271.38c0-2.57-3.59-4.9-7.56-6.63a36.32,36.32,0,0,1-12.66-9.8c-2.57-2.94-5-2.59-7.41.46a33.16,33.16,0,0,1-12.41,9.5c-3.7,1.71-6.94,4-6.94,6.47a9.64,9.64,0,0,0,9.12,9.62,15.75,15.75,0,0,0,28.74,0A9.64,9.64,0,0,0,273.78,271.38Z"/><rect class="cls-3" x="238.57" y="230.3" width="23.43" height="42.76" rx="11.31" ry="11.31"/><rect class="cls-7" x="135.41" y="111.37" width="232.12" height="35.82"/><path class="cls-10" d="M217.52,240.74A3.55,3.55,0,0,1,214,237.8c-.6-3.53-4.52-10.19-15-10.19-13.22,0-15.92,9.09-16,9.47a3.54,3.54,0,0,1-6.84-1.8c1.31-5.1,7.78-14.75,22.87-14.75,13.18,0,20.62,8.33,22,16.06a3.54,3.54,0,0,1-2.88,4.09A3.23,3.23,0,0,1,217.52,240.74Z"/><path class="cls-10" d="M193.79,226.8a3.52,3.52,0,0,1-3.43-2.73l-2-8.69a3.51,3.51,0,1,1,6.84-1.56l2,8.69a3.52,3.52,0,0,1-3.42,4.29Z"/><path class="cls-10" d="M203.34,226.14a3.46,3.46,0,0,1-.78-.09,3.52,3.52,0,0,1-2.65-4.21l2-8.68a3.51,3.51,0,1,1,6.85,1.55l-2,8.69A3.52,3.52,0,0,1,203.34,226.14Z"/><path class="cls-10" d="M285.42,240.74a3.55,3.55,0,0,0,3.49-2.94c.61-3.53,4.52-10.19,15-10.19,13.23,0,15.92,9.09,16,9.47a3.54,3.54,0,0,0,6.85-1.8c-1.32-5.1-7.79-14.75-22.88-14.75-13.18,0-20.62,8.33-22,16.06a3.54,3.54,0,0,0,2.89,4.09A3.05,3.05,0,0,0,285.42,240.74Z"/><path class="cls-10" d="M309.16,226.8a3.51,3.51,0,0,0,3.42-2.73l2-8.69a3.51,3.51,0,0,0-6.85-1.56l-2,8.69a3.51,3.51,0,0,0,2.64,4.2A3.61,3.61,0,0,0,309.16,226.8Z"/><path class="cls-10" d="M299.6,226.14a3.46,3.46,0,0,0,.78-.09,3.52,3.52,0,0,0,2.65-4.21l-2-8.68a3.51,3.51,0,0,0-6.85,1.55l2,8.69A3.52,3.52,0,0,0,299.6,226.14Z"/><path class="cls-7" d="M183.45,134.27s7.52,40,139.54,57.58a35.83,35.83,0,0,1,31.13,35.5v92.29a6.7,6.7,0,0,0,6.7,6.7h0a6.7,6.7,0,0,0,6.71-6.7V134.27Z"/><path class="cls-7" d="M183.45,134.27s-6.67,47.22-30.67,65.28V319a7.35,7.35,0,0,1-7.36,7.36h0a7.36,7.36,0,0,1-7.36-7.36V134.27Z"/><path class="cls-10" d="M304.64,273.84a49.18,49.18,0,0,1-18.41-3.71c-19.51-8-29.57-26.06-34.58-39.84l-.53-1.45,6.46-20,1-.83c1.45-1.23,36.14-30,98.43-23.12a11.38,11.38,0,0,1,9.89,13.62c-1.94,9.39-6.55,27.51-15.52,43.43-11.26,20-25.83,30.65-43.32,31.77A32.5,32.5,0,0,1,304.64,273.84Zm-44-45.19c15.26,39.89,46.06,36.13,46.37,36.08l.35,0c34.41-2.1,47.51-52.61,50.71-68a2.38,2.38,0,0,0-2.06-2.84c-53-5.84-84.89,15.93-90.68,20.29Z"/><path class="cls-10" d="M198.31,273.84a32.58,32.58,0,0,1-3.41-.16c-17.48-1.12-32.06-11.81-43.32-31.77-9-15.92-13.57-34-15.52-43.43A11.38,11.38,0,0,1,146,184.86c62.3-6.86,97,21.89,98.43,23.12l1,.83,6.46,20-.53,1.45c-5,13.78-15.07,31.87-34.58,39.84A49.17,49.17,0,0,1,198.31,273.84Zm-33.79-81a159.55,159.55,0,0,0-17.58,1,2.36,2.36,0,0,0-2.06,2.84c3.19,15.44,16.29,66,50.71,68l.34,0c1.26.17,31.23,3.53,46.37-36.08l-4.69-14.54C232.47,210.26,206.81,192.83,164.52,192.83Z"/><rect class="cls-10" x="243.35" y="208.68" width="16.24" height="19.55"/><path class="cls-11" d="M252.5,325a57.57,57.57,0,0,1-31.19-9.47,4,4,0,0,1,4.78-6.49c1.07.78,24.88,17.69,52-.12a4,4,0,1,1,4.42,6.74A54,54,0,0,1,252.5,325Z"/></svg>