<svg height="512pt" viewBox="-13 0 511 512" width="512pt" xmlns="http://www.w3.org/2000/svg"><path d="m365.449219 175.367188c-28.515625 23.703124-73.753907 54.066406-127.316407 64.117187-4.070312.765625-6.75 4.683594-5.988281 8.753906.675781 3.605469 3.824219 6.117188 7.363281 6.117188.457032 0 .925782-.039063 1.390626-.128907 56.726562-10.644531 104.253906-42.488281 134.136718-67.324218 3.1875-2.648438 3.625-7.378906.976563-10.5625-2.648438-3.1875-7.375-3.621094-10.5625-.972656zm0 0"/><path d="m473.402344 354.582031v-34.089843c6.742187-.175782 12.171875-5.703126 12.171875-12.484376v-13.53125c0-6.78125-5.429688-12.304687-12.171875-12.480468v-38.109375c0-23.257813-5.167969-45.519531-15.355469-66.171875-.335937-.71875-7.195313-13.144532-7.707031-13.949219-25.585938-40.40625-67.890625-65.789063-114.839844-69.535156v-66.730469c0-15.164062-12.335938-27.5-27.5-27.5h-280c-15.164062 0-27.5 12.335938-27.5 27.5v320.5c0 4.144531 3.359375 7.5 7.5 7.5 4.144531 0 7.5-3.355469 7.5-7.5v-273h305v18.773438c-5.214844.101562-10.382812.457031-15.488281 1.082031-1.070313-2.835938-3.800781-4.855469-7.011719-4.855469h-260c-4.140625 0-7.5 3.355469-7.5 7.5v306c0 4.144531 3.359375 7.5 7.5 7.5h155.09375c-3.484375 4.828125-6.691406 9.832031-9.59375 15h-155.5c-6.894531 0-12.5-5.605469-12.5-12.5v-30.5c0-4.144531-3.359375-7.5-7.5-7.5s-7.5 3.355469-7.5 7.5v30.5c0 15.164062 12.335938 27.5 27.5 27.5h148.109375c-6.988281 16.324219-11.230469 33.929688-12.472656 52.320312-.324219 4.816407 1.378906 9.597657 4.675781 13.125 3.300781 3.53125 7.960938 5.554688 12.792969 5.554688h218.597656c4.144531 0 7.5-3.355469 7.5-7.5s-3.355469-7.5-7.5-7.5h-218.597656c-.949219 0-1.554688-.5-1.835938-.796875-.277343-.296875-.730469-.933594-.667969-1.871094 1.894532-28.089843 11.527344-54.148437 27.753907-76.046875l77.671875 50.730469c3.308594 2.160156 7.042968 3.199219 10.738281 3.199219 6.066406 0 12.035156-2.796875 15.875-8.027344l12.859375-17.515625 12.859375 17.515625c3.839844 5.230469 9.808594 8.027344 15.875 8.027344 3.695313 0 7.429687-1.039063 10.738281-3.199219l77.671875-50.726563c16.21875 21.886719 25.851563 47.945313 27.753907 76.042969.0625.9375-.394532 1.574219-.667969 1.871094-.28125.296875-.886719.796875-1.835938.796875h-31.191406c-4.140625 0-7.5 3.355469-7.5 7.5s3.359375 7.5 7.5 7.5h31.191406c4.832031 0 9.496094-2.023438 12.792969-5.554688 3.296875-3.527343 5-8.3125 4.675781-13.128906-1.554687-22.945312-7.804687-44.738281-18.578125-64.769531-8.570312-15.9375-19.652344-30.125-33.019531-42.316406h10c17.445313 0 31.636719-14.195313 31.636719-31.648438zm-31.636719 16.648438h-7.636719c4.945313-10.453125 8.460938-21.710938 10.273438-33.527344 2.394531.933594 4.988281 1.46875 7.707031 1.46875 2.191406 0 4.304687-.335937 6.292969-.953125v16.363281c0 9.335938-7.308594 16.648438-16.636719 16.648438zm-50.339844 0c-2.632812-4.324219-7.378906-7.230469-12.808593-7.230469-8.269532 0-15 6.730469-15 15s6.730468 15 15 15c5.652343 0 10.578124-3.140625 13.136718-7.769531h15.398438c-19.6875 24.480469-49.867188 40.175781-83.652344 40.175781-59.171875 0-107.3125-48.140625-107.3125-107.3125v-31.445312c18.609375-2.347657 71.699219-11.355469 127.941406-42.027344 37.859375 29.433594 72.507813 38.855468 86.6875 41.660156v31.8125c0 18.914062-4.925781 36.691406-13.546875 52.140625h-25.84375zm-202.828125-86.621094c0-3.472656 2.824219-6.296875 6.292969-6.296875 3.472656 0 6.296875 2.824219 6.296875 6.296875v33.59375c-.011719.078125-.019531.15625-.027344.234375-.277344 3.214844-3.03125 5.730469-6.269531 5.730469-3.46875 0-6.292969-2.820313-6.292969-6.292969zm6.292969-21.296875c-2.191406 0-4.304687.335938-6.292969.953125v-20.378906c0-18.980469 3.742188-37.101563 11.078125-53.910157 1.683594 1.6875 3.648438 3.109376 5.839844 4.171876 1.75.847656 3.578125 1.429687 5.429687 1.777343-6.28125 14.707031-9.761718 30.886719-9.761718 47.863281v20.476563c-1.988282-.617187-4.101563-.953125-6.292969-.953125zm263.511719 54.5625c0 3.472656-2.824219 6.296875-6.292969 6.296875-3.472656 0-6.292969-2.824219-6.292969-6.296875v-33.265625c0-3.472656 2.820313-6.296875 6.292969-6.296875 3.46875 0 6.292969 2.824219 6.292969 6.296875zm-41.300782-126.535156c8.730469 15.519531 13.714844 33.414062 13.714844 52.449218v28.140626c-13.414062-3.03125-41.527344-11.621094-72.574218-34.441407 21.875-13.324219 41.609374-28.792969 58.859374-46.148437zm-75.914062 38.761718c-53.226562 30.035157-105.445312 39.664063-125 42.378907v-28.6875c0-59.175781 48.140625-107.316407 107.3125-107.316407 34.648438 0 65.515625 16.507813 85.148438 42.066407-19.269532 19.828125-41.9375 37.15625-67.460938 51.558593zm117.214844 13.785157v20.378906c-1.988282-.617187-4.101563-.949219-6.292969-.949219s-4.304687.332032-6.292969.949219v-20.472656c0-17.027344-3.507812-33.25-9.824218-47.992188 1.976562-.355469 3.933593-.972656 5.8125-1.890625 2.027343-.984375 3.859374-2.28125 5.441406-3.824218 7.398437 16.9375 11.15625 35 11.15625 53.800781zm-20.734375-72.097657c.933593 1.476563 1.1875 3.210938.710937 4.886719-.472656 1.660157-1.585937 2.992188-3.140625 3.75-2.609375 1.269531-5.679687.808594-7.871093-1.164062-.746094-1.199219-2.910157-4.578125-3.308594-5.035157-22.105469-31.855468-58.9375-52.75-100.558594-52.75-43.746094 0-82.195312 23.089844-103.820312 57.71875-.066407.0625-.132813.113282-.195313.175782-1.964844 1.964844-4.949219 2.480468-7.425781 1.277344-1.695313-.820313-2.910156-2.269532-3.421875-4.085938-.507813-1.800781-.234375-3.660156.769531-5.234375 25.042969-39.195313 67.65625-62.597656 113.984375-62.597656 46.550781 0 89.269531 23.574219 114.277344 63.058593zm-422.167969-144.289062c0-6.894531 5.605469-12.5 12.5-12.5h280c6.894531 0 12.5 5.605469 12.5 12.5v32.5h-305zm30 368.5v-291h220.722656c-28.109375 11.566406-52.441406 31.617188-69.457031 58.253906-.78125 1.21875-7.699219 13.980469-7.878906 14.332032-10.144531 20.539062-15.289063 42.84375-15.289063 66.300781v38.105469c-6.742187.179687-12.171875 5.703124-12.171875 12.484374v13.53125c0 6.84375 5.527344 12.410157 12.351563 12.492188 1.296875 10.503906 10.261718 18.667969 21.113281 18.667969 2.722656 0 5.324219-.5 7.714844-1.414063 2.503906 16.289063 8.238281 31.527344 16.523437 45.046875-4.882812 4.171875-9.480468 8.570313-13.765625 13.199219zm253.050781 59.308594c-1.46875 2-4.246093 2.503906-6.320312 1.148437l-76.261719-49.808593c3.6875-4.019532 7.625-7.863282 11.804688-11.507813 19.660156 24.691406 48.644531 41.644531 81.578124 45.453125zm56.21875 1.148437c-2.074219 1.355469-4.847656.851563-6.320312-1.148437l-10.808594-14.722656c32.9375-3.808594 61.929687-20.75 81.585937-45.445313 4.179688 3.644531 8.117188 7.488281 11.804688 11.507813zm0 0"/><path d="m123 120h-45c-9.648438 0-17.5 7.851562-17.5 17.5v59c0 9.648438 7.851562 17.5 17.5 17.5h45c9.648438 0 17.5-7.851562 17.5-17.5v-59c0-9.648438-7.851562-17.5-17.5-17.5zm2.5 76.5c0 1.378906-1.121094 2.5-2.5 2.5h-45c-1.378906 0-2.5-1.121094-2.5-2.5v-59c0-1.378906 1.121094-2.5 2.5-2.5h45c1.378906 0 2.5 1.121094 2.5 2.5zm0 0"/><path d="m132.5 229h-65c-4.140625 0-7.5 3.355469-7.5 7.5s3.359375 7.5 7.5 7.5h65c4.140625 0 7.5-3.355469 7.5-7.5s-3.359375-7.5-7.5-7.5zm0 0"/><path d="m132.5 259h-65c-4.140625 0-7.5 3.355469-7.5 7.5s3.359375 7.5 7.5 7.5h65c4.140625 0 7.5-3.355469 7.5-7.5s-3.359375-7.5-7.5-7.5zm0 0"/><path d="m112.5 289h-45c-4.140625 0-7.5 3.355469-7.5 7.5s3.359375 7.5 7.5 7.5h45c4.140625 0 7.5-3.355469 7.5-7.5s-3.359375-7.5-7.5-7.5zm0 0"/><path d="m92.5 319h-25c-4.140625 0-7.5 3.355469-7.5 7.5s3.359375 7.5 7.5 7.5h25c4.140625 0 7.5-3.355469 7.5-7.5s-3.359375-7.5-7.5-7.5zm0 0"/><path d="m279.066406 298.933594c-3.410156 0-6.171875 2.761718-6.171875 6.171875v12.101562c0 3.410157 2.761719 6.171875 6.171875 6.171875 3.40625 0 6.171875-2.761718 6.171875-6.171875v-12.101562c0-3.410157-2.765625-6.171875-6.171875-6.171875zm0 0"/><path d="m368.058594 298.933594c-3.40625 0-6.167969 2.761718-6.167969 6.171875v12.101562c0 3.410157 2.761719 6.171875 6.167969 6.171875 3.410156 0 6.171875-2.761718 6.171875-6.171875v-12.101562c0-3.410157-2.761719-6.171875-6.171875-6.171875zm0 0"/><path d="m355.535156 353.4375c-3.160156-1.273438-6.757812.257812-8.03125 3.417969-3.957031 9.820312-13.355468 16.164062-23.941406 16.164062s-19.984375-6.34375-23.941406-16.164062c-1.273438-3.160157-4.867188-4.6875-8.027344-3.414063-3.164062 1.273438-4.691406 4.867188-3.417969 8.027344 5.847657 14.515625 19.738281 23.894531 35.386719 23.894531 15.652344 0 29.542969-9.378906 35.390625-23.894531 1.273437-3.160156-.257813-6.757812-3.417969-8.03125zm0 0"/></svg>