<?xml version="1.0" encoding="iso-8859-1"?>
<!-- Generator: Adobe Illustrator 19.0.0, SVG Export Plug-In . SVG Version: 6.00 Build 0)  -->
<svg version="1.1" id="Capa_1" xmlns="http://www.w3.org/2000/svg" xmlns:xlink="http://www.w3.org/1999/xlink" x="0px" y="0px"
	 viewBox="0 0 512 512" style="enable-background:new 0 0 512 512;" xml:space="preserve">
<g>
	<g>
		<path d="M428.509,321.376h-79.734v-5.787c13.294-5.871,25.563-14.696,36.124-26.183c7.92-8.613,14.484-18.409,19.517-28.907h9.073
			c19.107,0,34.652-15.545,34.652-34.652c0-16.575-11.7-30.462-27.273-33.854c8.083-3.415,13.771-11.424,13.771-20.737v-13.24
			c0-9.919-6.453-18.352-15.379-21.338c-7.02-44.619-34.826-81.227-71.675-96.565c4.74-7.981,7.508-17.504,7.508-27.732
			c0-6.827-5.554-12.381-12.38-12.381h-67.58c-6.826,0-12.38,5.554-12.38,12.381c0,10.228,2.768,19.751,7.508,27.732
			c-36.849,15.338-64.655,51.947-71.675,96.565c-8.926,2.986-15.379,11.42-15.379,21.338v13.24c0,9.313,5.688,17.322,13.771,20.737
			c-15.573,3.392-27.273,17.279-27.273,33.854c0,19.107,15.545,34.652,34.652,34.652h9.073
			c5.032,10.499,11.597,20.294,19.517,28.907c10.562,11.487,22.831,20.311,36.124,26.183v5.787h-79.734
			c-16.877,0-30.608,13.731-30.608,30.608v97.643h-18.34c-12.407,0-22.5-10.093-22.5-22.5V248.395h4.125
			c6.893,0,12.5-5.607,12.5-12.5v-14.772h20.881c6.893,0,12.5-5.607,12.5-12.5V79.515c0-6.893-5.607-12.5-12.5-12.5h-1.924V55
			c0-6.893-5.607-12.5-12.5-12.5H79.807c-6.893,0-12.5,5.607-12.5,12.5v12.015h-1.924c-6.893,0-12.5,5.607-12.5,12.5v129.108
			c0,6.893,5.607,12.5,12.5,12.5h20.881v14.772c0,6.893,5.607,12.5,12.5,12.5h4.125v178.733c0,20.678,16.822,37.5,37.5,37.5h18.34
			v34.095c0,7.321,5.956,13.277,13.277,13.277H445.84c7.321,0,13.277-5.956,13.277-13.277V351.985
			C459.117,335.107,445.386,321.376,428.509,321.376z M82.307,57.5h56.164v9.515H82.307V57.5z M67.883,105H106.5
			c4.142,0,7.5-3.358,7.5-7.5c0-4.142-3.358-7.5-7.5-7.5H67.883v-7.985h85.012V90H143.5c-4.142,0-7.5,3.358-7.5,7.5
			c0,4.142,3.358,7.5,7.5,7.5h9.395v76H67.883V105z M67.883,206.123V196h85.012v10.123H67.883z M101.264,233.395v-12.272h18.25
			v12.272H101.264z M433.141,225.848c0,10.836-8.816,19.652-19.652,19.652H410.4c3.701-11.462,5.661-23.444,5.661-35.422v-3.694
			C425.683,207.65,433.141,215.886,433.141,225.848z M340.01,15c-0.484,7.676-3.087,14.683-7.129,20.266
			c-7.722-1.906-15.738-2.913-23.958-2.913c-8.221,0-16.237,1.007-23.959,2.913c-4.042-5.583-6.644-12.59-7.129-20.266H340.01z
			 M204.357,245.5c-10.836,0-19.652-8.816-19.652-19.652c0-9.962,7.458-18.197,17.079-19.464v3.694
			c0,11.978,1.96,23.96,5.661,35.422H204.357z M205.707,178.757c-4.136,0-7.5-3.364-7.5-7.5v-13.24c0-4.136,3.364-7.5,7.5-7.5H337.5
			c4.142,0,7.5-3.358,7.5-7.5c0-4.142-3.358-7.5-7.5-7.5H214c9.368-50.316,48.37-88.165,94.923-88.165
			c46.553,0,85.555,37.849,94.923,88.165H378.5c-4.142,0-7.5,3.358-7.5,7.5c0,4.142,3.358,7.5,7.5,7.5h33.639
			c4.136,0,7.5,3.364,7.5,7.5v13.24c0,4.136-3.364,7.5-7.5,7.5H205.707z M243.989,279.254
			c-17.289-18.803-27.205-44.017-27.205-69.177v-16.321h184.277v16.321c0,25.16-9.915,50.374-27.205,69.177
			c-17.664,19.211-40.724,29.792-64.934,29.792C284.713,309.046,261.652,298.466,243.989,279.254z M276.573,336.377
			c4.142,0,7.5-3.358,7.5-7.5v-8.041c8.066,2.114,16.391,3.21,24.85,3.21c8.458,0,16.784-1.096,24.852-3.21v8.041
			c0,4.142,3.358,7.5,7.5,7.5h25.908c-16.517,14.883-37.058,23.177-58.259,23.177c-21.202,0-41.742-8.294-58.259-23.177H276.573z
			 M229.834,336.376L229.834,336.376c20.585,24.307,49.211,38.177,79.089,38.177c29.877,0,58.503-13.87,79.089-38.177h10.439
			l-1.761,2.214c-22.271,28.008-54.261,44.071-87.768,44.071c-33.506,0-65.496-16.064-87.767-44.071l-1.761-2.214H229.834z
			 M360.816,493.895c0,1.683-1.422,3.105-3.104,3.105h-38.725v-31.785c0-0.539-0.042-1.068-0.104-1.591l12.228-12.227
			c0.798-0.798,1.736-0.917,2.225-0.917c0.466,0,1.359,0.11,2.098,0.848c1.152,1.152,1.119,3.131-0.07,4.321l-6.169,6.169
			c-2.146,2.144-2.788,5.371-1.627,8.173c1.161,2.802,3.896,4.63,6.929,4.63h23.215c1.683,0,3.104,1.422,3.104,3.105V493.895z
			 M444.117,497H375.54c0.177-1.009,0.276-2.045,0.276-3.105v-16.169c0-9.983-8.122-18.105-18.104-18.105h-7.516
			c2.316-6.388,0.933-13.811-4.158-18.9c-3.38-3.379-7.891-5.241-12.703-5.241c-4.851,0-9.408,1.886-12.832,5.311l-11.561,11.562
			c-1.037-0.261-2.116-0.415-3.232-0.415H285.5c-4.142,0-7.5,3.358-7.5,7.5c0,4.142,3.358,7.5,7.5,7.5h18.487V497H173.729v-93.779
			h30.961c2.236,0,4.055,1.818,4.055,4.054v52.163c0,4.142,3.358,7.5,7.5,7.5H250.5c4.142,0,7.5-3.358,7.5-7.5
			c0-4.142-3.358-7.5-7.5-7.5h-26.756v-44.663c0-10.506-8.548-19.054-19.055-19.054h-30.961v-36.236
			c0-8.607,7.002-15.608,15.608-15.608h10.894l9.184,11.55c25.133,31.607,61.402,49.735,99.507,49.735
			c38.106,0,74.375-18.128,99.508-49.735l9.185-11.55h10.895c8.606,0,15.608,7.002,15.608,15.608V497z"/>
	</g>
</g>
<g>
	<g>
		<path d="M425.74,398.988c-4.912-4.912-11.443-7.617-18.389-7.617c-6.948,0-13.478,2.706-18.385,7.615l-0.221,0.221l-0.22-0.22
			c-4.912-4.912-11.441-7.617-18.387-7.617s-13.477,2.705-18.388,7.617c-4.907,4.907-7.609,11.436-7.609,18.387
			s2.702,13.481,7.609,18.388l28.956,28.956c2.121,2.116,4.938,3.281,7.933,3.281c2.986,0,5.795-1.159,7.907-3.258l29.192-28.978
			c4.913-4.912,7.618-11.442,7.618-18.389C433.356,410.427,430.651,403.897,425.74,398.988z M415.15,425.137l-26.503,26.31
			l-26.29-26.29c-2.074-2.074-3.216-4.838-3.216-7.782c0-2.944,1.142-5.707,3.215-7.78c2.079-2.079,4.842-3.223,7.782-3.223
			c2.939,0,5.702,1.145,7.781,3.224l5.522,5.521c2.929,2.928,7.676,2.928,10.605,0l5.526-5.524c2.077-2.078,4.839-3.222,7.778-3.222
			s5.703,1.145,7.781,3.224c2.078,2.077,3.223,4.84,3.223,7.779C418.354,420.314,417.21,423.077,415.15,425.137z"/>
	</g>
</g>
<g>
	<g>
		<path d="M285.078,208.031c-2.929-2.929-7.678-2.929-10.606,0c-6.56,6.56-17.233,6.56-23.793,0c-2.929-2.929-7.678-2.929-10.606,0
			c-2.929,2.929-2.929,7.678,0,10.606c6.204,6.204,14.354,9.306,22.503,9.306c8.149,0,16.299-3.102,22.503-9.306
			C288.007,215.709,288.007,210.96,285.078,208.031z"/>
	</g>
</g>
<g>
	<g>
		<path d="M377.774,208.032c-2.929-2.929-7.678-2.929-10.606,0c-6.56,6.56-17.233,6.56-23.793,0c-2.929-2.929-7.678-2.929-10.606,0
			c-2.929,2.929-2.929,7.678,0,10.606c6.203,6.204,14.353,9.306,22.502,9.306s16.299-3.102,22.503-9.306
			C380.703,215.709,380.703,210.96,377.774,208.032z"/>
	</g>
</g>
<g>
	<g>
		<path d="M320.477,237.129h-4.054v-16.764c0-4.142-3.358-7.5-7.5-7.5c-4.142,0-7.5,3.358-7.5,7.5v19.264
			c0,6.893,5.607,12.5,12.5,12.5h6.554c4.142,0,7.5-3.358,7.5-7.5C327.977,240.487,324.619,237.129,320.477,237.129z"/>
	</g>
</g>
<g>
	<g>
		<path d="M342.227,264.844c-2.929-2.929-7.678-2.929-10.607,0c-12.516,12.516-32.88,12.516-45.396,0
			c-2.929-2.929-7.678-2.929-10.606,0c-2.929,2.929-2.929,7.678,0,10.607c9.182,9.182,21.243,13.773,33.304,13.773
			c12.062,0,24.123-4.591,33.305-13.773C345.156,272.522,345.156,267.773,342.227,264.844z"/>
	</g>
</g>
<g>
	<g>
		<path d="M126.609,136.446h-9.054v-9.054c0-4.142-3.358-7.5-7.5-7.5c-4.142,0-7.5,3.358-7.5,7.5v9.054h-9.054
			c-4.142,0-7.5,3.358-7.5,7.5c0,4.142,3.358,7.5,7.5,7.5h9.054v9.054c0,4.142,3.358,7.5,7.5,7.5c4.142,0,7.5-3.358,7.5-7.5v-9.054
			h9.054c4.142,0,7.5-3.358,7.5-7.5C134.109,139.804,130.751,136.446,126.609,136.446z"/>
	</g>
</g>
<g>
</g>
<g>
</g>
<g>
</g>
<g>
</g>
<g>
</g>
<g>
</g>
<g>
</g>
<g>
</g>
<g>
</g>
<g>
</g>
<g>
</g>
<g>
</g>
<g>
</g>
<g>
</g>
<g>
</g>
</svg>
