<svg height="496pt" viewBox="0 0 496 496" width="496pt" xmlns="http://www.w3.org/2000/svg"><path d="m472 304h-448c-13.230469 0-24-10.769531-24-24v-16c0-13.230469 10.769531-24 24-24h448c13.230469 0 24 10.769531 24 24v16c0 13.230469-10.769531 24-24 24zm-448-48c-4.40625 0-8 3.585938-8 8v16c0 4.414062 3.59375 8 8 8h448c4.40625 0 8-3.585938 8-8v-16c0-4.414062-3.59375-8-8-8zm0 0"/><path d="m472 496h-448v-200h16v184h416v-184h16zm0 0"/><path d="m224 248h-16v-33.824219c0-9.953125-6.257812-18.984375-15.574219-22.480469l-43.234375-16.207031 5.617188-14.984375 43.230468 16.207032c15.527344 5.832031 25.960938 20.890624 25.960938 37.464843zm0 0"/><path d="m48 248h-16v-33.824219c0-16.574219 10.433594-31.632812 25.960938-37.464843l43.230468-16.207032 5.617188 14.984375-43.234375 16.207031c-9.316407 3.496094-15.574219 12.527344-15.574219 22.480469zm0 0"/><path d="m128 200c-17.648438 0-32-14.351562-32-32v-16h16v16c0 8.824219 7.175781 16 16 16s16-7.175781 16-16v-16h16v16c0 17.648438-14.351562 32-32 32zm0 0"/><path d="m128 168c-26.472656 0-48-21.527344-48-48v-40h16v40c0 17.648438 14.351562 32 32 32s32-14.351562 32-32v-40h16v40c0 26.472656-21.527344 48-48 48zm0 0"/><path d="m168 136v-16c8.824219 0 16-7.175781 16-16s-7.175781-16-16-16c-12.457031 0-24.167969-4.847656-32.96875-13.65625l-.0625-.0625c-14.058594 8.984375-30.257812 13.71875-46.96875 13.71875-8.824219 0-16 7.175781-16 16s7.175781 16 16 16v16c-17.648438 0-32-14.351562-32-32s14.351562-32 32-32c14.121094 0 27.785156-4.144531 39.527344-11.96875l9.488281-6.328125 9.328125 9.328125c5.785156 5.785156 13.480469 8.96875 21.65625 8.96875 17.648438 0 32 14.351562 32 32s-14.351562 32-32 32zm0 0"/><path d="m200 104h-16v-32c0-30.871094-25.121094-56-56-56s-56 25.128906-56 56v32h-16v-32c0-39.703125 32.304688-72 72-72s72 32.296875 72 72zm0 0"/><path d="m176 208h16v40h-16zm0 0"/><path d="m64 208h16v40h-16zm0 0"/><path d="m352 248h-16v-72h-48v72h-16v-88h80zm0 0"/><path d="m416 248h-16v-56h-56v-16h72zm0 0"/><path d="m392 464h-48v-48h-48v-48h48v-48h48v48h48v48h-48zm-32-16h16v-48h48v-16h-48v-48h-16v48h-48v16h48zm0 0"/><path d="m56 320h192v16h-192zm0 0"/><path d="m232 352h16v16h-16zm0 0"/><path d="m88 352h128v16h-128zm0 0"/><path d="m56 352h16v16h-16zm0 0"/><path d="m56 384h192v16h-192zm0 0"/><path d="m496 144h-256v-144h256zm-240-16h224v-112h-224zm0 0"/><path d="m352 136h-16v-88h-48v88h-16v-104h80zm0 0"/><path d="m416 136h-16v-72h-56v-16h72zm0 0"/><path d="m464 136h-16v-56h-40v-16h56zm0 0"/></svg>